<mxfile host="app.diagrams.net" modified="2023-07-25T10:25:00.277Z" agent="Mozilla/5.0 (Macintosh; Intel Mac OS X 10_15_7) AppleWebKit/537.36 (KHTML, like Gecko) Chrome/114.0.0.0 Safari/537.36" etag="EQo6icqLplKEJlpv2nFj" version="21.6.3" type="device">
  <diagram name="Page-1" id="pDWImOEUlR_PLjOQQSMB">
    <mxGraphModel dx="1122" dy="688" grid="1" gridSize="10" guides="1" tooltips="1" connect="1" arrows="1" fold="1" page="1" pageScale="1" pageWidth="850" pageHeight="1100" math="0" shadow="0">
      <root>
        <mxCell id="0" />
        <mxCell id="1" parent="0" />
        <mxCell id="lWP1XZ6vy0pxTLPAlKrz-1" value="" style="whiteSpace=wrap;html=1;aspect=fixed;" vertex="1" parent="1">
          <mxGeometry x="310" y="260" width="180" height="180" as="geometry" />
        </mxCell>
        <mxCell id="lWP1XZ6vy0pxTLPAlKrz-3" value="" style="rounded=0;whiteSpace=wrap;html=1;" vertex="1" parent="1">
          <mxGeometry x="310" y="260" width="180" height="60" as="geometry" />
        </mxCell>
        <mxCell id="lWP1XZ6vy0pxTLPAlKrz-4" value="" style="rounded=0;whiteSpace=wrap;html=1;" vertex="1" parent="1">
          <mxGeometry x="310" y="300" width="180" height="50" as="geometry" />
        </mxCell>
        <mxCell id="lWP1XZ6vy0pxTLPAlKrz-5" value="Passenger" style="text;html=1;align=center;verticalAlign=middle;resizable=0;points=[];autosize=1;strokeColor=none;fillColor=none;" vertex="1" parent="1">
          <mxGeometry x="360" y="270" width="80" height="30" as="geometry" />
        </mxCell>
        <mxCell id="lWP1XZ6vy0pxTLPAlKrz-6" value="-name: String&lt;br&gt;-contact phone number: int&lt;br&gt;-uniqueID: int" style="text;html=1;strokeColor=none;fillColor=none;align=center;verticalAlign=middle;whiteSpace=wrap;rounded=0;" vertex="1" parent="1">
          <mxGeometry x="310" y="310" width="180" height="30" as="geometry" />
        </mxCell>
        <mxCell id="lWP1XZ6vy0pxTLPAlKrz-7" style="edgeStyle=orthogonalEdgeStyle;rounded=0;orthogonalLoop=1;jettySize=auto;html=1;exitX=0.5;exitY=1;exitDx=0;exitDy=0;" edge="1" parent="1" source="lWP1XZ6vy0pxTLPAlKrz-4" target="lWP1XZ6vy0pxTLPAlKrz-4">
          <mxGeometry relative="1" as="geometry" />
        </mxCell>
        <mxCell id="lWP1XZ6vy0pxTLPAlKrz-8" value="" style="whiteSpace=wrap;html=1;aspect=fixed;" vertex="1" parent="1">
          <mxGeometry x="560" y="410" width="190" height="190" as="geometry" />
        </mxCell>
        <mxCell id="lWP1XZ6vy0pxTLPAlKrz-9" value="" style="rounded=0;whiteSpace=wrap;html=1;" vertex="1" parent="1">
          <mxGeometry x="560" y="410" width="190" height="60" as="geometry" />
        </mxCell>
        <mxCell id="lWP1XZ6vy0pxTLPAlKrz-10" value="" style="rounded=0;whiteSpace=wrap;html=1;" vertex="1" parent="1">
          <mxGeometry x="560" y="450" width="190" height="70" as="geometry" />
        </mxCell>
        <mxCell id="lWP1XZ6vy0pxTLPAlKrz-11" value="Flight" style="text;html=1;align=center;verticalAlign=middle;resizable=0;points=[];autosize=1;strokeColor=none;fillColor=none;" vertex="1" parent="1">
          <mxGeometry x="625" y="420" width="50" height="30" as="geometry" />
        </mxCell>
        <mxCell id="lWP1XZ6vy0pxTLPAlKrz-12" value="-Destination: String&lt;br&gt;-flightID: String&lt;br&gt;-Collection&amp;lt;Passengers&amp;gt; : ArrayList" style="text;html=1;strokeColor=none;fillColor=none;align=center;verticalAlign=middle;whiteSpace=wrap;rounded=0;" vertex="1" parent="1">
          <mxGeometry x="560" y="470" width="190" height="30" as="geometry" />
        </mxCell>
        <mxCell id="lWP1XZ6vy0pxTLPAlKrz-13" style="edgeStyle=orthogonalEdgeStyle;rounded=0;orthogonalLoop=1;jettySize=auto;html=1;exitX=0.5;exitY=1;exitDx=0;exitDy=0;" edge="1" parent="1" source="lWP1XZ6vy0pxTLPAlKrz-10" target="lWP1XZ6vy0pxTLPAlKrz-10">
          <mxGeometry relative="1" as="geometry" />
        </mxCell>
        <mxCell id="lWP1XZ6vy0pxTLPAlKrz-14" value="" style="whiteSpace=wrap;html=1;aspect=fixed;" vertex="1" parent="1">
          <mxGeometry x="70" y="110" width="180" height="180" as="geometry" />
        </mxCell>
        <mxCell id="lWP1XZ6vy0pxTLPAlKrz-15" value="" style="rounded=0;whiteSpace=wrap;html=1;" vertex="1" parent="1">
          <mxGeometry x="70" y="110" width="180" height="60" as="geometry" />
        </mxCell>
        <mxCell id="lWP1XZ6vy0pxTLPAlKrz-16" value="" style="rounded=0;whiteSpace=wrap;html=1;" vertex="1" parent="1">
          <mxGeometry x="70" y="150" width="180" height="70" as="geometry" />
        </mxCell>
        <mxCell id="lWP1XZ6vy0pxTLPAlKrz-17" value="Airport" style="text;html=1;align=center;verticalAlign=middle;resizable=0;points=[];autosize=1;strokeColor=none;fillColor=none;" vertex="1" parent="1">
          <mxGeometry x="130" y="120" width="60" height="30" as="geometry" />
        </mxCell>
        <mxCell id="lWP1XZ6vy0pxTLPAlKrz-18" value="-name: String&lt;br&gt;-Collection&amp;lt;Flights&amp;gt;: ArrayList" style="text;html=1;strokeColor=none;fillColor=none;align=center;verticalAlign=middle;whiteSpace=wrap;rounded=0;" vertex="1" parent="1">
          <mxGeometry x="70" y="160" width="180" height="30" as="geometry" />
        </mxCell>
        <mxCell id="lWP1XZ6vy0pxTLPAlKrz-19" style="edgeStyle=orthogonalEdgeStyle;rounded=0;orthogonalLoop=1;jettySize=auto;html=1;exitX=0.5;exitY=1;exitDx=0;exitDy=0;" edge="1" parent="1" source="lWP1XZ6vy0pxTLPAlKrz-16" target="lWP1XZ6vy0pxTLPAlKrz-16">
          <mxGeometry relative="1" as="geometry" />
        </mxCell>
        <mxCell id="lWP1XZ6vy0pxTLPAlKrz-20" value="+getName()&lt;br&gt;+getPhoneNumber()&lt;br&gt;+getUniqueID()" style="text;html=1;strokeColor=none;fillColor=none;align=center;verticalAlign=middle;whiteSpace=wrap;rounded=0;" vertex="1" parent="1">
          <mxGeometry x="310" y="370" width="180" height="50" as="geometry" />
        </mxCell>
        <mxCell id="lWP1XZ6vy0pxTLPAlKrz-21" value="&lt;br&gt;&lt;br&gt;+getDestination()&lt;br&gt;getFlightID()&lt;br&gt;+getPassengers()&lt;br&gt;+bookPassengerOntoFlight()" style="text;html=1;strokeColor=none;fillColor=none;align=center;verticalAlign=middle;whiteSpace=wrap;rounded=0;" vertex="1" parent="1">
          <mxGeometry x="575" y="540" width="150" height="20" as="geometry" />
        </mxCell>
        <mxCell id="lWP1XZ6vy0pxTLPAlKrz-22" value="+addFlightToCollection()&lt;br&gt;+displayAllFlights()&lt;br&gt;+getAirportName()&lt;br&gt;+getFlights()&lt;br&gt;+cancelFlight()" style="text;html=1;strokeColor=none;fillColor=none;align=center;verticalAlign=middle;whiteSpace=wrap;rounded=0;" vertex="1" parent="1">
          <mxGeometry x="80" y="230" width="150" height="50" as="geometry" />
        </mxCell>
        <mxCell id="lWP1XZ6vy0pxTLPAlKrz-27" value="" style="rounded=0;whiteSpace=wrap;html=1;fontColor=#d21414;" vertex="1" parent="1">
          <mxGeometry x="540" y="90" width="220" height="200" as="geometry" />
        </mxCell>
        <mxCell id="lWP1XZ6vy0pxTLPAlKrz-30" value="" style="rounded=0;whiteSpace=wrap;html=1;fontColor=#d21414;" vertex="1" parent="1">
          <mxGeometry x="540" y="90" width="220" height="60" as="geometry" />
        </mxCell>
        <mxCell id="lWP1XZ6vy0pxTLPAlKrz-31" value="" style="rounded=0;whiteSpace=wrap;html=1;fontColor=#d21414;" vertex="1" parent="1">
          <mxGeometry x="540" y="130" width="220" height="90" as="geometry" />
        </mxCell>
        <mxCell id="lWP1XZ6vy0pxTLPAlKrz-32" value="IFly" style="text;html=1;strokeColor=none;fillColor=none;align=center;verticalAlign=middle;whiteSpace=wrap;rounded=0;fontColor=#d21414;" vertex="1" parent="1">
          <mxGeometry x="620" y="100" width="60" height="30" as="geometry" />
        </mxCell>
        <mxCell id="lWP1XZ6vy0pxTLPAlKrz-33" value="-isTakenOff: boolean" style="text;html=1;strokeColor=none;fillColor=none;align=center;verticalAlign=middle;whiteSpace=wrap;rounded=0;fontColor=#d21414;" vertex="1" parent="1">
          <mxGeometry x="595" y="140" width="120" height="30" as="geometry" />
        </mxCell>
        <mxCell id="lWP1XZ6vy0pxTLPAlKrz-34" value="" style="rhombus;whiteSpace=wrap;html=1;" vertex="1" parent="1">
          <mxGeometry x="150" y="290" width="80" height="50" as="geometry" />
        </mxCell>
        <mxCell id="lWP1XZ6vy0pxTLPAlKrz-35" value="" style="endArrow=none;html=1;rounded=0;exitX=-0.005;exitY=0.937;exitDx=0;exitDy=0;exitPerimeter=0;" edge="1" parent="1" source="lWP1XZ6vy0pxTLPAlKrz-8">
          <mxGeometry width="50" height="50" relative="1" as="geometry">
            <mxPoint x="140" y="390" as="sourcePoint" />
            <mxPoint x="190" y="340" as="targetPoint" />
            <Array as="points">
              <mxPoint x="190" y="590" />
            </Array>
          </mxGeometry>
        </mxCell>
        <mxCell id="lWP1XZ6vy0pxTLPAlKrz-36" value="" style="endArrow=none;html=1;rounded=0;exitX=-0.005;exitY=0.937;exitDx=0;exitDy=0;exitPerimeter=0;entryX=0.844;entryY=1.006;entryDx=0;entryDy=0;entryPerimeter=0;" edge="1" parent="1" source="lWP1XZ6vy0pxTLPAlKrz-37" target="lWP1XZ6vy0pxTLPAlKrz-1">
          <mxGeometry width="50" height="50" relative="1" as="geometry">
            <mxPoint x="569" y="598" as="sourcePoint" />
            <mxPoint x="200" y="350" as="targetPoint" />
            <Array as="points" />
          </mxGeometry>
        </mxCell>
        <mxCell id="lWP1XZ6vy0pxTLPAlKrz-39" value="" style="endArrow=none;html=1;rounded=0;exitX=-0.005;exitY=0.937;exitDx=0;exitDy=0;exitPerimeter=0;entryX=0.844;entryY=1.006;entryDx=0;entryDy=0;entryPerimeter=0;" edge="1" parent="1" target="lWP1XZ6vy0pxTLPAlKrz-37">
          <mxGeometry width="50" height="50" relative="1" as="geometry">
            <mxPoint x="569" y="598" as="sourcePoint" />
            <mxPoint x="462" y="441" as="targetPoint" />
            <Array as="points" />
          </mxGeometry>
        </mxCell>
        <mxCell id="lWP1XZ6vy0pxTLPAlKrz-37" value="" style="rhombus;whiteSpace=wrap;html=1;" vertex="1" parent="1">
          <mxGeometry x="460" y="470" width="80" height="50" as="geometry" />
        </mxCell>
      </root>
    </mxGraphModel>
  </diagram>
</mxfile>
